<?xml version="1.0" encoding="UTF-8"?>
<svg width="20px" height="21px" viewBox="0 0 20 21" version="1.1" xmlns="http://www.w3.org/2000/svg" xmlns:xlink="http://www.w3.org/1999/xlink">
    <!-- Generator: Sketch 46.2 (44496) - http://www.bohemiancoding.com/sketch -->
    <title>icon/icon-project/black</title>
    <desc>Created with Sketch.</desc>
    <defs></defs>
    <g id="Symbol" stroke="none" stroke-width="1" fill="none" fill-rule="evenodd">
        <g id="icon/icon-project/black" fill="#1A1A1A">
            <g id="Page-1" transform="translate(0.000000, 0.500000)">
                <path d="M9.95130469,14.998625 C12.7195859,15.0466328 14.9457578,12.8654219 14.9985312,10.0532734 C15.0504453,7.28592969 12.8727109,5.05897656 10.0584531,5.00159375 C7.28571875,4.94510938 5.04564063,7.13979688 5.00122656,9.95647656 C4.95755469,12.7263594 7.14048438,14.9499141 9.95130469,14.998625 M11.3281406,19.9999922 L8.86720313,19.9999922 C8.85294531,19.9882344 8.84048437,19.9700703 8.82423437,19.9656953 C8.37064063,19.8438984 8.13521094,19.5387422 8.11005469,19.0800703 C8.09083594,18.7299141 8.08950781,18.3778047 8.10224219,18.0272969 C8.10853125,17.8537813 8.06091406,17.7705391 7.88673437,17.7331172 C7.69728125,17.6924531 7.50798437,17.6349141 7.3305625,17.5574141 C6.88001563,17.3605 6.43610938,17.1483125 5.96778906,16.9322188 C5.71685156,17.1835859 5.44290625,17.4607734 5.16579687,17.7347578 C4.6736875,18.2212422 4.13107031,18.2240547 3.64079687,17.7397188 C3.21505469,17.3191719 2.79251562,16.8954609 2.37114844,16.4705391 C1.8755625,15.9707734 1.87482031,15.43175 2.36755469,14.9319453 C2.60958594,14.6864766 2.85138281,14.4405781 3.10048437,14.202375 C3.1818125,14.1246406 3.18458594,14.0671016 3.13290625,13.9700312 C2.98040625,13.6835859 2.82747656,13.3959297 2.70040625,13.0978047 C2.54814062,12.7404609 2.42232031,12.3718672 2.28110937,11.9976484 C1.86384375,11.9976484 1.44146094,11.9969062 1.01907813,11.9979219 C0.756851562,11.9985078 0.498375,11.9510469 0.322632812,11.7522578 C0.185953125,11.5976094 0.105484375,11.3931953 1.5625e-05,11.2109297 L1.5625e-05,8.78905469 C0.275171875,8.13467969 0.471226563,8.00499219 1.19478125,8.00233594 C1.55849219,8.00092969 1.92224219,8.00210156 2.28704687,8.00210156 C2.30528906,7.95796094 2.32376562,7.92350781 2.33403906,7.88678906 C2.51634375,7.23546094 2.72403906,6.59425 3.04528906,5.99440625 C3.06892188,5.95026562 3.03942969,5.84659375 2.99915625,5.80432813 C2.73911719,5.53128125 2.46275,5.27370312 2.20396094,4.99948438 C1.78884375,4.55964063 1.79466406,3.99413281 2.22775,3.57585156 C2.71415625,3.106125 3.20860937,2.64413281 3.71200781,2.1926875 C4.19298437,1.76135937 4.75575781,1.80975781 5.18739844,2.29784375 C5.39419531,2.53167187 5.59775,2.76854687 5.8124375,2.99491406 C5.85114844,3.03569531 5.94884375,3.06327344 5.99888281,3.04397656 C6.58544531,2.81807812 7.16646094,2.57764844 7.75329688,2.35253125 C7.86454688,2.309875 7.9015,2.26030469 7.89942969,2.14495312 C7.89282813,1.78089062 7.8930625,1.41659375 7.89829687,1.05249219 C7.90384375,0.668390625 8.01345312,0.332453125 8.37489844,0.132453125 C8.46935156,0.0801484375 8.57263281,0.043703125 8.67189063,-7.8125e-06 L11.1328281,-7.8125e-06 C11.1470469,0.01175 11.1595859,0.0299921875 11.1758359,0.034328125 C11.63025,0.156046875 11.8658359,0.462414063 11.8898984,0.921125 C11.9097031,1.29764844 11.9032187,1.6758125 11.9002109,2.05315625 C11.8993516,2.16249219 11.9309531,2.21428906 12.0415,2.24280469 C12.2488047,2.29628125 12.4586484,2.3514375 12.6542734,2.43624219 C13.1113047,2.63436719 13.5605234,2.85046094 14.0334922,3.06878125 C14.2872031,2.81397656 14.5606016,2.53561719 14.8381406,2.26151563 C15.323375,1.78225781 15.8681406,1.77721875 16.3501719,2.25163281 C16.7863047,2.68085156 17.2191172,3.11354688 17.6482969,3.54971875 C18.1184531,4.02757031 18.1186094,4.56721875 17.6525937,5.04729687 C17.4395078,5.26682812 17.2235313,5.48382031 17.0023203,5.69510938 C16.9325156,5.76178906 16.8415391,5.80628125 16.76025,5.86089062 C16.7898203,5.87471875 16.8194297,5.88846875 16.8490391,5.90229687 C17.1469297,6.59792187 17.4448203,7.29358594 17.7482578,8.00198437 C18.0908359,8.00198437 18.4556797,8.01448437 18.8193516,7.99909375 C19.3760703,7.9755 19.7979063,8.15589063 20.0000156,8.71092969 L20.0000156,11.1328047 C19.9882578,11.1470234 19.9700547,11.1595625 19.9656797,11.1757734 C19.8438047,11.6294453 19.5389609,11.8642891 19.0797031,11.8890938 C18.7359922,11.9076094 18.3907578,11.9037422 18.0463047,11.8998359 C17.9357578,11.8985469 17.884,11.9332734 17.8554453,12.0402266 C17.8018906,12.2406563 17.7516172,12.4447578 17.6699375,12.6344062 C17.4702891,13.0978437 17.2534922,13.5539375 17.0343906,14.0330781 C17.2808359,14.2801094 17.5520078,14.5508906 17.8220469,14.8228047 C18.3259531,15.3301484 18.3279062,15.8710078 17.8263828,16.3751094 C17.4134922,16.7901484 16.9992344,17.2038594 16.5845078,17.6170625 C16.0692344,18.1305391 15.5333359,18.1306563 15.0182969,17.6176094 C14.7468125,17.3471406 14.4770469,17.0749141 14.2498203,16.8469062 C13.5407969,17.1305 12.8663438,17.3977266 12.1956797,17.6740156 C12.1503672,17.6926875 12.1082578,17.7791719 12.1070859,17.8349531 C12.0992344,18.2055781 12.1070469,18.5765156 12.1017344,18.9471797 C12.0962656,19.3312813 11.9867344,19.6674141 11.6251719,19.8675312 C11.5306797,19.9197969 11.4273984,19.9562813 11.3281406,19.9999922" id="Fill-1"></path>
                <path d="M13.0020898,10.0223164 C12.9811523,11.6750508 11.6244336,13.0163008 9.98775391,13.0021992 C8.32923828,12.9879414 6.98236328,11.6254805 6.99783203,9.97766797 C7.01326172,8.33208203 8.38048828,6.98051953 10.0122461,6.99774609 C11.6751758,7.01532422 13.0228711,8.37868359 13.0020898,10.0223164" id="Fill-4"></path>
            </g>
        </g>
    </g>
</svg>