<?xml version="1.0" encoding="UTF-8"?>
<svg width="22px" height="24px" viewBox="0 0 22 24" version="1.1" xmlns="http://www.w3.org/2000/svg" xmlns:xlink="http://www.w3.org/1999/xlink">
    <!-- Generator: Sketch 46.2 (44496) - http://www.bohemiancoding.com/sketch -->
    <title>logo/grey</title>
    <desc>Created with Sketch.</desc>
    <defs></defs>
    <g id="Symbol" stroke="none" stroke-width="1" fill="none" fill-rule="evenodd">
        <g id="logo/grey" fill-rule="nonzero" fill="#E2E2E2">
            <g id="Group-3" transform="translate(0.311343, 0.446330)">
                <path d="M7.94771798,4.55121786 C7.35854913,4.74188739 6.87806191,4.30906756 7.00771719,3.74468574 C7.25177419,2.67312298 7.50028014,1.60219578 7.75323506,0.531904139 C7.77537085,0.352937036 7.87601965,0.193109741 8.02785361,0.0958180802 C8.17968756,-0.00147358049 8.3669491,-0.0261325222 8.53879352,0.0285365768 C8.97352006,0.125778038 9.16228289,0.409875639 9.06313474,0.833161999 C8.81526434,1.92569841 8.55976717,3.01632813 8.30045661,4.10695785 C8.26527067,4.30503187 8.13266037,4.47204917 7.94771798,4.55121786 L7.94771798,4.55121786 Z" id="Shape"></path>
                <path d="M18.5279703,13.0741459 C17.9864688,13.236215 17.446874,13.4040042 16.9053726,13.5584465 C16.629608,13.6578555 16.3233246,13.5327074 16.1960819,13.2686288 C16.0054124,12.9006366 16.0473597,12.5803118 16.3123903,12.3839222 C16.4013509,12.3223092 16.4999366,12.2759159 16.6041147,12.2466401 C17.6438992,11.9237731 18.6843193,11.6059905 19.7253749,11.2932925 C19.894351,11.2206782 20.0871529,11.228686 20.2495255,11.3150623 C20.4118982,11.4014386 20.5262887,11.556846 20.5605075,11.7375525 C20.6901628,12.1551188 20.5433472,12.4411231 20.1219676,12.572685 C19.5899996,12.7366608 19.0542182,12.8930099 18.5203435,13.055079 L18.5279703,13.0741459 Z" id="Shape"></path>
                <path d="M13.6372968,7.84598736 C13.3241866,7.9417897 12.9860697,7.81204718 12.8174178,7.53138263 C12.6524829,7.30801547 12.67178,6.99845912 12.8631785,6.79730494 C13.6550926,5.93929205 14.4520913,5.08636368 15.2541744,4.23851983 C15.4925113,3.98683605 15.8433433,4.02115656 16.1255342,4.2900006 C16.4077251,4.55884464 16.4515791,4.9020498 16.2227756,5.15373358 C15.4372172,6.00793308 14.6465742,6.85768362 13.8508467,7.70298521 C13.7870203,7.7608146 13.7150748,7.80899241 13.6372968,7.84598736 Z" id="Shape"></path>
                <polygon id="Shape" points="12.1863017 22.9412942 9.14893602 22.9412942 4.99996702 17.2822225 2.92548252 19.5702568 2.92548252 22.9470142 0.397204536 22.9470142 0.397204536 9.72980233 2.92548252 9.72980233 2.92548252 16.3193413 8.88581207 9.72980233 11.8659768 9.72980233 6.79226062 15.320233"></polygon>
            </g>
        </g>
    </g>
</svg>