<?xml version="1.0" encoding="UTF-8"?>
<svg width="19px" height="19px" viewBox="0 0 19 19" version="1.1" xmlns="http://www.w3.org/2000/svg" xmlns:xlink="http://www.w3.org/1999/xlink">
    <!-- Generator: Sketch 46.2 (44496) - http://www.bohemiancoding.com/sketch -->
    <title>icon/icon-todo/dark-grey</title>
    <desc>Created with Sketch.</desc>
    <defs></defs>
    <g id="Symbol" stroke="none" stroke-width="1" fill="none" fill-rule="evenodd">
        <g id="icon/icon-todo/dark-grey" fill-rule="nonzero" fill="#4A4A4A">
            <path d="M9.1380016,0 C4.07056435,0 0,4.07056435 0,9.1380016 C0,14.2054389 4.07056435,18.2760032 9.1380016,18.2760032 C14.2054389,18.2760032 18.2760032,14.2054389 18.2760032,9.1380016 C18.2760032,4.07056435 14.2054389,0 9.1380016,0 Z M14.4131207,6.27199201 L14.4131207,6.27199201 L7.76730136,13.1670296 C7.68422862,13.2501023 7.60115588,13.2916387 7.47654676,13.2916387 C7.35193765,13.2916387 7.22732854,13.2501023 7.18579217,13.1670296 L3.94595524,9.67797442 L3.86288249,9.59490168 C3.77980975,9.51182894 3.73827338,9.38721983 3.73827338,9.30414708 C3.73827338,9.22107434 3.77980975,9.09646523 3.86288249,9.01339249 L4.44439169,8.43188329 C4.61053717,8.26573781 4.8597554,8.26573781 5.02590088,8.43188329 L5.06743725,8.47341967 L7.35193765,10.9240655 C7.43501039,11.0071383 7.55961951,11.0071383 7.64269225,10.9240655 L13.2085659,5.15050999 L13.2501023,5.15050999 C13.4162478,4.98436451 13.665466,4.98436451 13.8316115,5.15050999 L14.4131207,5.73201919 C14.5792662,5.8566283 14.5792662,6.10584652 14.4131207,6.27199201 L14.4131207,6.27199201 Z" id="Shape"></path>
        </g>
    </g>
</svg>