<?xml version="1.0" encoding="UTF-8"?>
<svg width="20px" height="21px" viewBox="0 0 20 21" version="1.1" xmlns="http://www.w3.org/2000/svg" xmlns:xlink="http://www.w3.org/1999/xlink">
    <!-- Generator: Sketch 46.2 (44496) - http://www.bohemiancoding.com/sketch -->
    <title>icon/icon-team/black</title>
    <desc>Created with Sketch.</desc>
    <defs></defs>
    <g id="Symbol" stroke="none" stroke-width="1" fill="none" fill-rule="evenodd">
        <g id="icon/icon-team/black" fill="#1A1A1A">
            <g id="Page-1" transform="translate(0.000000, 2.500000)">
                <path d="M0,11.7636122 C0.052940918,11.4779105 0.0920914865,11.1887806 0.16108219,10.9070134 C0.644523538,8.93269499 2.31374016,7.45323202 4.33168902,7.20703143 C4.55003622,7.18042462 4.77087659,7.16967283 4.99085993,7.16515395 C5.0367109,7.16421901 5.11929717,7.21778323 5.12510158,7.25541452 C5.24255329,8.01910382 5.63378628,8.64718801 6.09510074,9.26662402 C6.09704853,9.26927301 5.93947236,9.39245122 5.8545877,9.45770217 C5.20803846,9.95466118 4.61006709,10.5009382 4.17972248,11.2023372 C4.01809491,11.4657563 3.90465565,11.7584311 3.75701321,12.0311606 C3.72522529,12.089867 3.64096391,12.1574163 3.58054348,12.1577669 C2.40626016,12.1648179 1.23189893,12.1624805 0.0575766569,12.1616625 C0.0383714527,12.1616235 0.0192052042,12.1560918 0,12.1531701 L0,11.7636122 Z" id="Fill-1"></path>
                <path d="M19.9453642,11.9583912 C18.778054,11.9604948 17.6107438,11.9650137 16.4434725,11.9582353 C16.377832,11.9578458 16.2885064,11.8786097 16.2510309,11.8128523 C15.8208421,11.0581618 15.3088462,10.3682937 14.65435,9.79299465 C14.4019164,9.57114143 14.1298882,9.37153196 13.8557563,9.15295103 C13.9679489,8.98450619 14.1112283,8.8203465 14.1971259,8.6302812 C14.4096297,8.16008482 14.6021492,7.68042218 14.7879294,7.19881176 C14.8307807,7.08778776 14.8718012,7.04700104 14.9905384,7.05264963 C17.0596752,7.15171421 18.6017401,8.08287444 19.5012682,9.96903586 C19.7091363,10.4048732 19.7759455,10.9080262 19.9063695,11.3805599 C19.9233932,11.442227 19.9325478,11.5060365 19.9453642,11.5688333 L19.9453642,11.9583912 Z" id="Fill-3"></path>
                <path d="M4.91849176,15.0626417 C4.9251532,12.2882493 7.08879671,10.0346958 9.96614924,10.0677693 C13.105908,10.1039203 14.9855248,12.6827156 14.9125217,15.0626417 L4.91849176,15.0626417 Z" id="Fill-5"></path>
                <path d="M9.91885301,9.06021677 C8.25512915,9.05285413 6.90916767,7.69953 6.91952991,6.04453223 C6.92997006,4.37925014 8.28792993,3.02876979 9.93638312,3.04431315 C11.599211,3.06005128 12.9449387,4.42054328 12.9303303,6.07121695 C12.9156829,7.72337094 11.5613849,9.0675015 9.91885301,9.06021677" id="Fill-7"></path>
                <path d="M14.9442044,6.02782799 C14.8496977,4.11330676 13.9158495,2.69032968 12.3504111,1.6438603 C12.9528624,0.442424797 14.3600623,-0.283360518 15.8617691,0.180330245 C17.3577883,0.642190086 18.2212044,2.17611326 17.8698232,3.71961955 C17.5522556,5.11443159 16.1910624,6.19175395 14.9442044,6.02782799" id="Fill-9"></path>
                <path d="M7.50108141,1.65028411 C5.90662095,2.67334106 4.97281172,4.09920087 4.90417162,6.02797992 C3.85863718,6.11009872 2.35860555,5.38645598 1.98560386,3.75779233 C1.63137887,2.21097479 2.43597175,0.713981711 3.9041765,0.203621912 C5.29606686,-0.28024795 6.88744982,0.354147083 7.50108141,1.65028411" id="Fill-12"></path>
            </g>
        </g>
    </g>
</svg>