<?xml version="1.0" encoding="UTF-8"?>
<svg width="31px" height="31px" viewBox="0 0 31 31" version="1.1" xmlns="http://www.w3.org/2000/svg" xmlns:xlink="http://www.w3.org/1999/xlink">
    <!-- Generator: Sketch 46.2 (44496) - http://www.bohemiancoding.com/sketch -->
    <title>icon/icon-done</title>
    <desc>Created with Sketch.</desc>
    <defs>
        <linearGradient x1="100%" y1="2.22044605e-14%" x2="3.00891668%" y2="94.5482623%" id="linearGradient-green">
            <stop stop-color="#37ECBA" offset="0%"></stop>
            <stop stop-color="#72C5D3" offset="100%"></stop>
        </linearGradient>
    </defs>
    <g id="Maquettes" stroke="none" stroke-width="1" fill="none" fill-rule="evenodd">
        <g id="Single-project" transform="translate(-876.000000, -242.000000)" fill="url(#linearGradient-green)">
            <g id="Group-23" transform="translate(575.000000, 233.000000)">
                <g id="Group-14" transform="translate(301.000000, 0.000000)">
                    <g id="icon/todo/icon-done/normal" transform="translate(0.000000, 8.810638)">
                        <g id="tick-inside-circle" transform="translate(0.500000, 0.310638)">
                            <path d="M8.96002663,12.15 L6.86002663,14.25 L13.6100266,21 L28.6100266,6 L26.5100266,3.9 L13.6100266,16.8 L8.96002663,12.15 Z M27.1100266,15 C27.1100266,21.6 21.7100266,27 15.1100266,27 C8.51002663,27 3.11002663,21.6 3.11002663,15 C3.11002663,8.4 8.51002663,3 15.1100266,3 C16.3100266,3 17.3600266,3.15 18.4100266,3.45 L20.8100854,1.05 C19.0100266,0.45 17.0600266,0 15.1100266,0 C6.86002663,0 0.110026626,6.75 0.110026626,15 C0.110026626,23.25 6.86002663,30 15.1100266,30 C23.3600266,30 30.1100266,23.25 30.1100266,15 L27.1100266,15 Z" id="Shape" fill-rule="nonzero"></path>
                        </g>
                    </g>
                </g>
            </g>
        </g>
    </g>
</svg>