<?xml version="1.0" encoding="UTF-8"?>
<svg width="15px" height="15px" viewBox="0 0 15 15" version="1.1" xmlns="http://www.w3.org/2000/svg" xmlns:xlink="http://www.w3.org/1999/xlink">
    <!-- Generator: Sketch 46.2 (44496) - http://www.bohemiancoding.com/sketch -->
    <title>icon/icon-clock/orange</title>
    <desc>Created with Sketch.</desc>
    <defs>
        <linearGradient x1="93.5157493%" y1="13.2602992%" x2="8.80433009%" y2="96.5597566%" id="gradient-orange">
            <stop stop-color="#F6D365" offset="0%"></stop>
            <stop stop-color="#FF931E" offset="100%"></stop>
        </linearGradient>
    </defs>
    <g id="Symbol" stroke="none" stroke-width="1" fill="none" fill-rule="evenodd">
        <g id="icon/icon-clock/orange" fill-rule="nonzero" fill="url(#gradient-orange)">
            <path d="M7.499925,0 C3.35785596,0 0,3.35792239 0,7.4998 C0,11.6416776 3.35785596,15 7.499875,15 C11.641894,15 15,11.6418276 15,7.4998 C15,3.35777239 11.641944,0 7.499925,0 Z M8.01783363,8.41690611 C8.01743362,8.43660624 8.01448357,8.45630638 8.01173353,8.47605651 C8.0097835,8.49085661 8.00888348,8.50600671 8.00553343,8.5205568 C8.00218337,8.5357069 7.99643327,8.550657 7.99153319,8.56580711 C7.98568309,8.58410723 7.980233,8.60235735 7.97258288,8.61960746 C7.97113285,8.62260748 7.97063284,8.62580751 7.96933282,8.62880753 C7.95803263,8.65290769 7.94493242,8.67550784 7.93058218,8.69690798 C7.92968216,8.69820799 7.92848214,8.699508 7.92758213,8.70080801 C7.91123185,8.72480817 7.89258154,8.74660831 7.87298122,8.76705845 C7.86753113,8.77265848 7.86198103,8.77770852 7.85623094,8.78300855 C7.83898065,8.79945866 7.82083035,8.81450876 7.80153003,8.82825886 C7.79557993,8.83255888 7.78987983,8.83705891 7.78362973,8.84120894 C7.75887931,8.85740905 7.73292888,8.87165914 7.70592843,8.88335922 C7.70007833,8.88595924 7.69397823,8.88750925 7.68802813,8.88985927 C7.66522775,8.89865932 7.64212737,8.90595937 7.61827697,8.91150941 C7.60972683,8.91355942 7.60127669,8.91540944 7.59257654,8.91695945 C7.56197603,8.92255948 7.53097552,8.92640951 7.49957499,8.92640951 C7.49322489,8.92640951 7.48672478,8.9244595 7.48037467,8.92420949 C7.45027417,8.92305949 7.42047367,8.92070947 7.3918232,8.91460943 C7.38287305,8.91265942 7.3740729,8.90875939 7.36512275,8.90630938 C7.33842231,8.89905933 7.31232187,8.89100927 7.28742146,8.8798592 C7.28457141,8.87840919 7.28157136,8.87815919 7.27872131,8.87685918 L4.40292338,7.52040014 C4.14381906,7.39824932 4.03281721,7.08909726 4.15496925,6.82999553 C4.27712129,6.57104381 4.58627644,6.45989307 4.84538076,6.58204388 L6.98121635,7.5892506 L6.98121635,3.11247075 C6.98121635,2.82601884 7.21347022,2.59376729 7.499925,2.59376729 C7.78637977,2.59376729 8.01863364,2.82601884 8.01863364,3.11247075 L8.01863364,8.40755605 L8.01873365,8.40755605 C8.01873365,8.41065607 8.01783363,8.41375609 8.01783363,8.41690611 Z" id="Shape"></path>
        </g>
    </g>
</svg>