<?xml version="1.0" encoding="utf-8"?>
<!-- Generator: Adobe Illustrator 22.0.1, SVG Export Plug-In . SVG Version: 6.00 Build 0)  -->
<svg version="1.1" id="Calque_1" xmlns="http://www.w3.org/2000/svg" xmlns:xlink="http://www.w3.org/1999/xlink" x="0px" y="0px"
	 viewBox="0 0 20 21" style="enable-background:new 0 0 20 21;" xml:space="preserve">
<title>icon/icon-project/black</title>
<desc>Created with Sketch.</desc>
<g>
	<path d="M14.6,5.8c-0.3-0.3-0.9-0.3-1.2,0c-0.3,0.3-0.3,0.9,0,1.2L16,9.6H5.4c-0.5,0-0.9,0.4-0.9,0.9s0.4,0.9,0.9,0.9H16l-2.6,2.6
		c-0.3,0.3-0.3,0.9,0,1.2c0.2,0.2,0.4,0.3,0.6,0.3s0.4-0.1,0.6-0.3l4-4c0.3-0.3,0.3-0.9,0-1.2L14.6,5.8z"/>
	<path d="M9.4,20c0.5,0,0.9-0.4,0.9-0.9s-0.4-0.9-0.9-0.9H2.8V2.7h6.6c0.5,0,0.9-0.4,0.9-0.9S9.9,1,9.4,1H1.9C1.5,1,1.1,1.4,1.1,1.9
		v17.3c0,0.5,0.4,0.9,0.9,0.9H9.4z"/>
</g>
</svg>
